<?xml version="1.0" encoding="UTF-8" standalone="no"?><!-- Generator: Gravit.io --><svg xmlns="http://www.w3.org/2000/svg" xmlns:xlink="http://www.w3.org/1999/xlink" style="isolation:isolate" viewBox="431.5 151 463.5 494" width="463.5pt" height="494pt"><defs><clipPath id="_clipPath_emKeGoQKtrJYFPzLi02wsKX6ekWCHeco"><rect x="431.5" y="151" width="463.5" height="494"/></clipPath></defs><g clip-path="url(#_clipPath_emKeGoQKtrJYFPzLi02wsKX6ekWCHeco)"><circle vector-effect="non-scaling-stroke" cx="473.49999999999994" cy="303.5" r="32.5" fill="rgb(255,255,0)"/><circle vector-effect="non-scaling-stroke" cx="463.99999999999994" cy="313.49999999999994" r="32.5" fill="rgb(255,255,0)"/><circle vector-effect="non-scaling-stroke" cx="764.9999999999999" cy="300.49999999999994" r="32.5" fill="rgb(255,255,0)"/><circle vector-effect="non-scaling-stroke" cx="770.4999999999999" cy="303.49999999999994" r="32.5" fill="rgb(255,255,0)"/><circle vector-effect="non-scaling-stroke" cx="496.5" cy="276.5" r="32.5" fill="rgb(255,255,0)"/><circle vector-effect="non-scaling-stroke" cx="630" cy="183.49999999999997" r="32.5" fill="rgb(255,255,0)"/><circle vector-effect="non-scaling-stroke" cx="580.4999999999999" cy="198.5" r="32.5" fill="rgb(255,255,0)"/><circle vector-effect="non-scaling-stroke" cx="540" cy="235.49999999999994" r="32.5" fill="rgb(255,255,0)"/><circle vector-effect="non-scaling-stroke" cx="732.5" cy="263.5" r="32.5" fill="rgb(255,255,0)"/><circle vector-effect="non-scaling-stroke" cx="538.5" cy="248.49999999999994" r="32.5" fill="rgb(255,255,0)"/><circle vector-effect="non-scaling-stroke" cx="680.5" cy="204.83333333333337" r="32.5" fill="rgb(255,255,0)"/><circle vector-effect="non-scaling-stroke" cx="724.4999999999999" cy="232.49999999999994" r="32.5" fill="rgb(255,255,0)"/><path d=" M 480 320 L 777 320 L 651 180 L 489 272.4 L 480 320 Z " fill="rgb(255,255,0)"/><path d=" M 600 300 L 780 300 L 720 630 L 510 630 L 450 300 L 510 300" fill="rgb(255,84,84)" vector-effect="non-scaling-stroke" stroke-width="10" stroke="rgb(0,0,0)" stroke-linejoin="miter" stroke-linecap="square" stroke-miterlimit="3"/><ellipse vector-effect="non-scaling-stroke" cx="615" cy="434.99999999999994" rx="90" ry="45" fill="rgb(255,255,255)"/><circle vector-effect="non-scaling-stroke" cx="599.5000000000001" cy="417.825" r="2.0000000000001137" fill="rgb(0,0,0)"/><circle vector-effect="non-scaling-stroke" cx="802.9999999999998" cy="364.49999999999994" r="18.5" fill="rgb(255,255,0)"/><circle vector-effect="non-scaling-stroke" cx="811.40625" cy="351.90624999999994" r="12.59375" fill="rgb(255,255,0)"/><path d=" M 800.944 241.343 C 805.722 236.295 813.7 236.075 818.748 240.853 C 823.796 245.631 824.016 253.608 819.238 258.657 C 814.461 263.705 806.483 263.925 801.435 259.147 C 796.386 254.369 796.167 246.392 800.944 241.343 Z " fill="rgb(255,255,0)"/><path d=" M 812.353 236.435 C 817.131 231.386 825.108 231.167 830.157 235.944 C 835.205 240.722 835.425 248.7 830.647 253.748 C 825.869 258.796 817.892 259.016 812.843 254.238 C 807.795 249.461 807.575 241.483 812.353 236.435 Z " fill="rgb(255,255,0)"/><path d=" M 799.762 228.752 C 804.539 223.704 812.517 223.484 817.565 228.262 C 822.614 233.039 822.833 241.017 818.056 246.065 C 813.278 251.114 805.3 251.333 800.252 246.556 C 795.204 241.778 794.984 233.8 799.762 228.752 Z " fill="rgb(255,255,0)"/><path d=" M 585.575 455.375 L 585.575 455.375 Q 583.775 455.375 582.475 454.725 L 582.475 454.725 L 582.475 454.725 Q 581.675 454.275 581.675 453.675 L 581.675 453.675 L 581.675 453.675 Q 581.675 453.075 581.975 452.7 L 581.975 452.7 L 581.975 452.7 Q 582.275 452.325 582.825 452.325 L 582.825 452.325 L 582.825 452.325 Q 583.325 452.325 584.275 452.725 L 584.275 452.725 L 584.275 452.725 Q 585.325 453.125 585.575 453.125 L 585.575 453.125 L 585.575 453.125 Q 586.525 453.125 587.3 452.3 L 587.3 452.3 L 587.3 452.3 Q 588.075 451.475 588.525 450.125 L 588.525 450.125 L 588.525 450.125 Q 589.425 447.625 589.425 445.625 L 589.425 445.625 L 589.425 445.625 Q 589.425 443.475 588.75 441.1 L 588.75 441.1 L 588.75 441.1 Q 588.075 438.725 586.925 436.475 L 586.925 436.475 L 586.125 434.875 L 586.125 434.875 Q 584.875 432.375 584.2 430.925 L 584.2 430.925 L 584.2 430.925 Q 583.525 429.475 583.025 427.775 L 583.025 427.775 L 583.025 427.775 Q 582.275 425.375 582.275 423.125 L 582.275 423.125 L 582.275 423.125 Q 582.275 421.325 582.9 419.725 L 582.9 419.725 L 582.9 419.725 Q 583.525 418.125 584.775 417.025 L 584.775 417.025 L 584.775 417.025 Q 586.025 415.825 587.875 415.825 L 587.875 415.825 L 587.875 415.825 Q 588.775 415.825 589.625 416.35 L 589.625 416.35 L 589.625 416.35 Q 590.475 416.875 590.825 417.675 L 590.825 417.675 L 589.975 418.725 L 589.975 418.725 Q 588.675 418.725 588.025 418.225 L 588.025 418.225 L 588.025 418.225 Q 587.125 418.325 586.45 419.1 L 586.45 419.1 L 586.45 419.1 Q 585.775 419.875 585.425 420.875 L 585.425 420.875 L 585.425 420.875 Q 585.125 421.825 585.125 422.775 L 585.125 422.775 L 585.125 422.775 Q 585.125 424.675 585.65 426.65 L 585.65 426.65 L 585.65 426.65 Q 586.175 428.625 587.025 430.375 L 587.025 430.375 L 590.525 437.375 L 590.525 437.375 Q 591.375 439.175 591.875 441.425 L 591.875 441.425 L 591.875 441.425 Q 592.375 443.675 592.375 445.925 L 592.375 445.925 L 592.375 445.925 Q 592.375 449.225 590.775 452.125 L 590.775 452.125 L 590.775 452.125 Q 589.925 453.625 588.575 454.5 L 588.575 454.5 L 588.575 454.5 Q 587.225 455.375 585.575 455.375 L 585.575 455.375 L 585.575 455.375 Z  M 600.625 454.225 L 600.625 454.225 Q 596.275 454.225 596.275 452.725 L 596.275 452.725 L 596.275 452.725 Q 596.275 451.525 597.825 451.525 L 597.825 451.525 L 598.375 451.525 L 598.875 451.575 L 598.875 451.575 Q 599.275 451.575 599.425 451.325 L 599.425 451.325 L 599.425 451.325 Q 599.575 451.075 599.575 450.425 L 599.575 450.425 L 599.575 450.425 Q 599.575 449.575 599.475 447.775 L 599.475 447.775 L 599.475 447.775 Q 599.325 446.575 599.125 443.475 L 599.125 443.475 L 599.125 443.475 Q 598.675 435.825 598.675 431.925 L 598.675 431.925 L 598.675 431.925 Q 598.675 430.525 598.725 429.375 L 598.725 429.375 L 598.775 426.825 L 598.775 426.825 Q 598.775 425.175 598.625 424.075 L 598.625 424.075 L 598.625 424.075 Q 597.825 424.275 597.475 424.275 L 597.475 424.275 L 597.475 424.275 Q 596.275 424.275 596.275 423.075 L 596.275 423.075 L 596.275 423.075 Q 596.275 422.475 597.025 422.025 L 597.025 422.025 L 597.025 422.025 Q 597.775 421.575 598.925 421.375 L 598.925 421.375 L 598.925 421.375 Q 600.925 420.975 602.475 420.975 L 602.475 420.975 L 602.475 420.975 Q 603.075 420.975 603.5 421.4 L 603.5 421.4 L 603.5 421.4 Q 603.925 421.825 603.925 422.375 L 603.925 422.375 L 603.925 422.375 Q 603.925 422.925 603.6 423.325 L 603.6 423.325 L 603.6 423.325 Q 603.275 423.725 602.775 423.725 L 602.775 423.725 L 602.775 423.725 Q 602.475 423.725 602.275 423.675 L 602.275 423.675 L 601.875 423.675 L 601.875 423.675 Q 601.375 423.675 601.15 423.9 L 601.15 423.9 L 601.15 423.9 Q 600.925 424.125 600.925 424.725 L 600.925 424.725 L 600.925 424.725 Q 600.925 429.209 601.438 437.882 C 601.466 438.354 601.495 438.835 601.525 439.325 L 601.525 439.325 L 601.525 439.325 Q 601.625 441.125 601.925 444.625 L 601.925 444.625 L 601.925 444.625 Q 602.175 446.925 602.175 449.325 L 602.175 449.325 L 602.175 451.225 L 602.175 451.225 Q 602.475 451.175 603.175 451.175 L 603.175 451.175 L 603.175 451.175 Q 605.275 451.175 605.275 452.925 L 605.275 452.925 L 605.275 453.225 L 604.025 454.075 L 604.025 454.075 Q 603.975 454.075 603.7 454.1 L 603.7 454.1 L 603.7 454.1 Q 603.425 454.125 602.675 454.125 L 602.675 454.125 L 602.675 454.125 Q 601.075 454.225 600.625 454.225 L 600.625 454.225 Z  M 623.075 454.425 L 623.075 454.425 Q 622.475 454.425 622.175 454.1 L 622.175 454.1 L 622.175 454.1 Q 621.875 453.775 621.725 452.975 L 621.725 452.975 L 621.425 452.025 L 621.425 451.925 L 621.425 451.775 L 621.425 451.775 Q 621.425 450.125 618 440.525 L 618 440.525 L 618 440.525 Q 614.575 430.925 612.625 426.325 L 612.625 426.325 L 612.625 451.475 L 612.825 451.825 L 612.825 451.825 Q 612.875 451.925 613.025 452.175 L 613.025 452.175 L 613.025 452.175 Q 613.175 452.425 613.175 452.675 L 613.175 452.675 L 613.175 452.675 Q 613.175 453.325 612.725 453.775 L 612.725 453.775 L 612.725 453.775 Q 612.275 454.225 611.625 454.225 L 611.625 454.225 L 611.625 454.225 Q 610.025 454.225 610.025 451.175 L 610.025 451.175 L 609.975 442.625 L 609.975 442.625 Q 609.925 438.775 609.925 434.025 L 609.925 434.025 L 609.925 434.025 Q 609.925 432.425 610.075 429.375 L 610.075 429.375 L 610.075 429.375 Q 610.225 426.225 610.225 424.725 L 610.225 424.725 L 610.225 424.725 Q 610.225 422.375 612.025 421.025 L 612.025 421.025 L 612.025 421.325 L 612.025 421.325 Q 612.325 421.225 612.425 421.225 L 612.425 421.225 L 612.425 421.225 Q 613.575 421.225 615.325 425.225 L 615.325 425.225 L 615.325 425.225 Q 616.725 428.425 617.85 431.975 L 617.85 431.975 L 617.85 431.975 Q 618.975 435.525 620.825 442.075 L 620.825 442.075 L 621.325 443.875 L 621.325 443.875 Q 622.475 447.925 623.075 449.675 L 623.075 449.675 L 623.075 449.675 Q 624.075 438.925 624.075 424.275 L 624.075 424.275 L 624.075 423.625 L 624.075 423.625 Q 624.025 423.325 624.025 422.975 L 624.025 422.975 L 624.025 422.975 Q 624.025 421.475 625.225 421.475 L 625.225 421.475 L 625.225 421.475 Q 625.925 421.475 626.3 422.025 L 626.3 422.025 L 626.3 422.025 Q 626.675 422.575 626.675 423.425 L 626.675 423.425 L 626.675 427.175 L 626.675 427.175 Q 626.575 434.875 626.075 443.875 L 626.075 443.875 L 626.075 443.875 Q 625.575 452.875 624.875 454.025 L 624.875 454.025 L 624.875 454.025 Q 623.425 454.425 623.075 454.425 L 623.075 454.425 L 623.075 454.425 Z  M 640.075 454.975 L 640.075 454.975 Q 638.975 454.975 637.75 454.65 L 637.75 454.65 L 637.75 454.65 Q 636.525 454.325 635.875 453.925 L 635.875 453.925 L 635.875 453.925 Q 632.525 451.775 632.525 442.175 L 632.525 442.175 L 632.525 440.825 L 632.525 439.275 L 632.525 438.075 L 632.525 438.075 Q 632.525 436.075 632.575 434.5 L 632.575 434.5 L 632.575 434.5 Q 632.625 432.925 632.775 431.075 L 632.775 431.075 L 632.775 431.075 Q 632.925 429.125 633.225 427.9 L 633.225 427.9 L 633.225 427.9 Q 633.525 426.675 634.225 425.125 L 634.225 425.125 L 634.225 425.125 Q 634.825 423.675 635.7 422.875 L 635.7 422.875 L 635.7 422.875 Q 636.575 422.075 637.975 421.525 L 637.975 421.525 L 637.975 421.525 Q 639.225 420.975 641.075 420.975 L 641.075 420.975 L 641.075 420.975 Q 641.825 420.975 642.225 421.325 L 642.225 421.325 L 642.225 421.325 Q 642.625 421.675 642.625 422.225 L 642.625 422.225 L 642.625 422.225 Q 642.625 422.725 642.3 423.125 L 642.3 423.125 L 642.3 423.125 Q 641.975 423.525 641.525 423.575 L 641.525 423.575 L 639.175 423.575 L 639.175 423.575 Q 638.175 423.575 637.425 424.825 L 637.425 424.825 L 637.425 424.825 Q 636.675 426.075 636.375 428.075 L 636.375 428.075 L 636.375 428.075 Q 635.725 431.775 635.725 434.075 L 635.725 434.075 L 635.725 434.325 L 635.625 439.125 L 635.625 439.125 Q 635.525 441.275 635.525 443.975 L 635.525 443.975 L 635.525 443.975 Q 635.525 445.875 635.675 447.075 L 635.675 447.075 L 635.675 447.075 Q 635.925 448.875 636.525 450.075 L 636.525 450.075 L 636.525 450.075 Q 637.125 451.425 638.575 452.025 L 638.575 452.025 L 638.575 452.025 Q 639.325 452.325 640.225 452.325 L 640.225 452.325 L 640.225 452.325 Q 640.775 452.325 641.325 451.925 L 641.325 451.925 L 641.325 451.925 Q 641.975 451.925 642.4 452.2 L 642.4 452.2 L 642.4 452.2 Q 642.825 452.475 642.825 453.025 L 642.825 453.025 L 642.825 453.025 Q 642.825 454.975 640.075 454.975 L 640.075 454.975 L 640.075 454.975 Z " fill="rgb(0,0,0)"/><path d=" M 597.5 415 Q 598.451 414.013 599.5 414 Q 600.549 413.987 601.55 415" fill="none" vector-effect="non-scaling-stroke" stroke-width="0.5" stroke="rgb(0,0,0)" stroke-linejoin="miter" stroke-linecap="square" stroke-miterlimit="3"/><path d=" M 596.587 413 Q 597.92 412.013 599.39 412 Q 600.86 411.987 602.263 413" fill="none" vector-effect="non-scaling-stroke" stroke-width="0.5" stroke="rgb(0,0,0)" stroke-linejoin="miter" stroke-linecap="square" stroke-miterlimit="3"/><path d=" M 595.969 411 Q 597.639 410.013 599.481 410 Q 601.323 409.987 603.081 411" fill="none" vector-effect="non-scaling-stroke" stroke-width="0.5" stroke="rgb(0,0,0)" stroke-linejoin="miter" stroke-linecap="square" stroke-miterlimit="3"/></g></svg>